<svg width="10" height="6" viewBox="0 0 10 6" fill="none" xmlns="http://www.w3.org/2000/svg">
<path d="M9.43512 5.85117L5.30309 0.154688C5.15309 -0.0515625 4.84606 -0.0515625 4.69723 0.154688L0.564028 5.85117C0.553857 5.86518 0.547763 5.88173 0.546424 5.899C0.545084 5.91626 0.54855 5.93355 0.556438 5.94896C0.564326 5.96438 0.576327 5.9773 0.591112 5.98631C0.605897 5.99532 0.622887 6.00006 0.6402 6H1.51911C1.57887 6 1.63512 5.9707 1.67028 5.92266L4.99958 1.33359L8.32887 5.92266C8.36403 5.9707 8.42028 6 8.48004 6H9.35895C9.43512 6 9.47965 5.91328 9.43512 5.85117V5.85117Z" fill="#262626"/>
</svg>
